<svg width="16" height="16" viewBox="0 0 16 16" fill="none" xmlns="http://www.w3.org/2000/svg">
<rect width="16" height="16" rx="2" fill="#501A91"/>
<path d="M10.1582 10.8223C10.1582 10.8848 10.1426 10.9746 10.1113 11.0918C10.0762 11.2402 10.0547 11.3301 10.0469 11.3613C10.0352 11.502 10.0078 11.707 9.96484 11.9766C9.94531 12.0469 9.89453 12.082 9.8125 12.082C9.77344 12.082 9.69922 12.0742 9.58984 12.0586C9.10938 11.9883 8.36523 11.9531 7.35742 11.9531C7.07227 11.9531 6.64258 11.9609 6.06836 11.9766C5.49414 11.9922 5.06445 12 4.7793 12C4.65039 12 4.58594 11.9434 4.58594 11.8301C4.58594 11.3926 4.60938 10.7363 4.65625 9.86133C4.70703 8.98242 4.73242 8.32422 4.73242 7.88672C4.73242 7.44141 4.70898 6.61133 4.66211 5.39648C4.6543 5.08398 4.63281 4.61719 4.59766 3.99609L4.5918 3.91406C4.58789 3.82422 4.63867 3.7793 4.74414 3.7793C5.01758 3.7793 5.42773 3.78711 5.97461 3.80273C6.52148 3.81836 6.93164 3.82617 7.20508 3.82617C7.4668 3.82617 7.85742 3.81836 8.37695 3.80273C8.90039 3.78711 9.29297 3.7793 9.55469 3.7793C9.73828 3.7793 9.83789 3.83594 9.85352 3.94922C9.93555 4.46484 9.97656 4.78516 9.97656 4.91016C9.97656 5 9.93359 5.04492 9.84766 5.04492C9.51562 5.04492 9.01172 5.02734 8.33594 4.99219C7.66406 4.95312 7.1582 4.93359 6.81836 4.93359C6.49805 4.93359 6.29492 4.97656 6.20898 5.0625C6.12695 5.14844 6.08594 5.36133 6.08594 5.70117V6.57422C6.08594 6.8125 6.0918 6.95117 6.10352 6.99023C6.13867 7.11133 6.24023 7.17188 6.4082 7.17188C6.45508 7.17188 6.52148 7.16992 6.60742 7.16602C6.69727 7.16602 6.76367 7.16602 6.80664 7.16602C7.57227 7.16602 8.25977 7.15234 8.86914 7.125C9.10742 7.11719 9.38867 7.09766 9.71289 7.06641C9.79492 7.05859 9.83594 7.09375 9.83594 7.17188C9.83594 7.29688 9.82031 7.48828 9.78906 7.74609C9.76172 8.00391 9.74805 8.19727 9.74805 8.32617C9.74805 8.39648 9.68945 8.43164 9.57227 8.43164C9.52539 8.43164 9.35156 8.41797 9.05078 8.39062C8.83203 8.36719 8.33984 8.35547 7.57422 8.35547C6.92969 8.35547 6.52148 8.36328 6.34961 8.37891C6.19336 8.39062 6.10352 8.47266 6.08008 8.625C6.08398 8.59766 6.08594 8.74805 6.08594 9.07617V9.94336C6.08594 10.3496 6.14844 10.6035 6.27344 10.7051C6.37109 10.7871 6.61523 10.8281 7.00586 10.8281L7.65039 10.8223C7.92383 10.8223 8.69141 10.7754 9.95312 10.6816L10.041 10.6758C10.1191 10.668 10.1582 10.7168 10.1582 10.8223Z" fill="white"/>
</svg>
